PathFileType	4	(X/Y/Z)	E:/New_biomech_experiments/27_06_2024_Shreyas_Arm26_updated ground/Afternoon session/Neeraj_PP_27_6_24_elbow_flexion_t01.trc	
DataRate	CameraRate	NumFrames	NumMarkers	Units	OrigDataRate	OrigDataStartFrame	OrigNumFrames	
120.00	120.00	98	4	m	120.00	4078	6524	
Frame#	Time	MarkerSet_r_acromion			MarkerSet_r_humerus_epicondyle			MarkerSet_r_radius_styloid			MarkerSet_RHAND			
		X1	Y1	Z1	X2	Y2	Z2	X3	Y3	Z3	X4	Y4	Z4	

4078	33.975	-0.00390	0.77851	0.23924	-0.01887	0.44021	0.27022	0.20990	0.56108	0.23566	0.26904	0.61700	0.17955 
4079	33.983	-0.00393	0.77850	0.23924	-0.01891	0.44019	0.27021	0.21001	0.56080	0.23569	0.26925	0.61662	0.17958 
4080	33.992	-0.00396	0.77849	0.23923	-0.01895	0.44017	0.27019	0.21011	0.56052	0.23573	0.26946	0.61625	0.17960 
4081	34.000	-0.00400	0.77848	0.23923	-0.01899	0.44016	0.27017	0.21021	0.56025	0.23578	0.26968	0.61587	0.17964 
4082	34.008	-0.00403	0.77847	0.23922	-0.01903	0.44014	0.27016	0.21029	0.55998	0.23584	0.26991	0.61549	0.17968 
4083	34.017	-0.00407	0.77846	0.23922	-0.01907	0.44012	0.27014	0.21036	0.55972	0.23592	0.27014	0.61511	0.17972 
4084	34.025	-0.00411	0.77844	0.23921	-0.01912	0.44011	0.27013	0.21042	0.55947	0.23601	0.27038	0.61472	0.17977 
4085	34.033	-0.00414	0.77843	0.23920	-0.01916	0.44009	0.27011	0.21046	0.55921	0.23611	0.27062	0.61432	0.17983 
4086	34.042	-0.00418	0.77842	0.23920	-0.01921	0.44007	0.27010	0.21053	0.55894	0.23620	0.27087	0.61391	0.17989 
4087	34.050	-0.00422	0.77840	0.23919	-0.01926	0.44005	0.27008	0.21062	0.55865	0.23629	0.27111	0.61349	0.17996 
4088	34.058	-0.00425	0.77838	0.23919	-0.01931	0.44003	0.27006	0.21073	0.55833	0.23636	0.27135	0.61307	0.18003 
4089	34.067	-0.00428	0.77837	0.23918	-0.01936	0.44001	0.27005	0.21086	0.55800	0.23642	0.27159	0.61263	0.18010 
4090	34.075	-0.00431	0.77835	0.23918	-0.01942	0.43999	0.27003	0.21100	0.55765	0.23647	0.27183	0.61219	0.18018 
4091	34.083	-0.00434	0.77833	0.23918	-0.01948	0.43997	0.27000	0.21114	0.55730	0.23652	0.27205	0.61175	0.18025 
4092	34.092	-0.00437	0.77832	0.23917	-0.01955	0.43994	0.26998	0.21125	0.55696	0.23657	0.27228	0.61131	0.18033 
4093	34.100	-0.00439	0.77830	0.23917	-0.01962	0.43992	0.26995	0.21135	0.55663	0.23662	0.27250	0.61088	0.18040 
4094	34.108	-0.00442	0.77828	0.23917	-0.01970	0.43989	0.26992	0.21147	0.55629	0.23665	0.27273	0.61045	0.18047 
4095	34.117	-0.00445	0.77826	0.23917	-0.01978	0.43987	0.26988	0.21159	0.55594	0.23669	0.27295	0.61003	0.18055 
4096	34.125	-0.00447	0.77824	0.23917	-0.01986	0.43984	0.26985	0.21172	0.55560	0.23672	0.27317	0.60960	0.18062 
4097	34.133	-0.00450	0.77821	0.23917	-0.01994	0.43982	0.26982	0.21187	0.55525	0.23674	0.27340	0.60917	0.18069 
4098	34.142	-0.00453	0.77819	0.23918	-0.02002	0.43979	0.26979	0.21204	0.55488	0.23676	0.27362	0.60874	0.18076 
4099	34.150	-0.00455	0.77817	0.23918	-0.02010	0.43976	0.26976	0.21221	0.55451	0.23679	0.27384	0.60830	0.18084 
4100	34.158	-0.00458	0.77815	0.23918	-0.02017	0.43973	0.26974	0.21236	0.55414	0.23682	0.27405	0.60786	0.18091 
4101	34.167	-0.00461	0.77813	0.23918	-0.02025	0.43970	0.26971	0.21247	0.55379	0.23687	0.27427	0.60741	0.18097 
4102	34.175	-0.00463	0.77810	0.23918	-0.02032	0.43967	0.26968	0.21253	0.55345	0.23693	0.27448	0.60696	0.18104 
4103	34.183	-0.00465	0.77808	0.23919	-0.02040	0.43964	0.26966	0.21257	0.55312	0.23699	0.27469	0.60651	0.18110 
4104	34.192	-0.00468	0.77806	0.23919	-0.02047	0.43961	0.26963	0.21261	0.55279	0.23705	0.27489	0.60606	0.18115 
4105	34.200	-0.00470	0.77804	0.23919	-0.02055	0.43958	0.26960	0.21268	0.55246	0.23710	0.27510	0.60561	0.18120 
4106	34.208	-0.00472	0.77802	0.23919	-0.02063	0.43955	0.26957	0.21276	0.55213	0.23716	0.27531	0.60515	0.18124 
4107	34.217	-0.00474	0.77799	0.23919	-0.02071	0.43952	0.26954	0.21285	0.55180	0.23721	0.27553	0.60470	0.18129 
4108	34.225	-0.00476	0.77797	0.23919	-0.02078	0.43949	0.26951	0.21296	0.55146	0.23727	0.27576	0.60424	0.18133 
4109	34.233	-0.00479	0.77795	0.23919	-0.02086	0.43945	0.26948	0.21308	0.55113	0.23732	0.27599	0.60379	0.18138 
4110	34.242	-0.00481	0.77792	0.23919	-0.02093	0.43942	0.26945	0.21321	0.55079	0.23738	0.27623	0.60333	0.18144 
4111	34.250	-0.00483	0.77790	0.23919	-0.02100	0.43938	0.26942	0.21335	0.55044	0.23745	0.27647	0.60288	0.18149 
4112	34.258	-0.00485	0.77787	0.23919	-0.02107	0.43935	0.26940	0.21350	0.55009	0.23752	0.27671	0.60242	0.18156 
4113	34.267	-0.00487	0.77784	0.23919	-0.02114	0.43933	0.26937	0.21364	0.54974	0.23758	0.27695	0.60196	0.18163 
4114	34.275	-0.00488	0.77782	0.23919	-0.02121	0.43930	0.26935	0.21379	0.54937	0.23765	0.27719	0.60150	0.18171 
4115	34.283	-0.00489	0.77779	0.23919	-0.02128	0.43929	0.26933	0.21393	0.54901	0.23771	0.27743	0.60104	0.18178 
4116	34.292	-0.00490	0.77777	0.23918	-0.02136	0.43929	0.26931	0.21407	0.54864	0.23777	0.27766	0.60058	0.18186 
4117	34.300	-0.00491	0.77775	0.23918	-0.02143	0.43931	0.26930	0.21421	0.54827	0.23782	0.27789	0.60011	0.18193 
4118	34.308	-0.00493	0.77774	0.23918	-0.02151	0.43934	0.26931	0.21434	0.54790	0.23786	0.27812	0.59965	0.18200 
4119	34.317	-0.00494	0.77773	0.23917	-0.02159	0.43938	0.26932	0.21447	0.54753	0.23791	0.27834	0.59919	0.18206 
4120	34.325	-0.00495	0.77771	0.23917	-0.02166	0.43941	0.26933	0.21460	0.54718	0.23796	0.27856	0.59874	0.18213 
4121	34.333	-0.00497	0.77770	0.23916	-0.02171	0.43941	0.26934	0.21472	0.54683	0.23801	0.27878	0.59830	0.18221 
4122	34.342	-0.00499	0.77769	0.23915	-0.02175	0.43939	0.26935	0.21484	0.54649	0.23806	0.27899	0.59788	0.18229 
4123	34.350	-0.00501	0.77767	0.23915	-0.02177	0.43936	0.26935	0.21496	0.54617	0.23812	0.27920	0.59746	0.18237 
4124	34.358	-0.00502	0.77764	0.23916	-0.02180	0.43932	0.26935	0.21507	0.54586	0.23818	0.27940	0.59707	0.18245 
4125	34.367	-0.00502	0.77761	0.23917	-0.02182	0.43927	0.26935	0.21517	0.54556	0.23824	0.27959	0.59669	0.18252 
4126	34.375	-0.00503	0.77757	0.23918	-0.02184	0.43922	0.26935	0.21527	0.54526	0.23829	0.27977	0.59632	0.18260 
4127	34.383	-0.00504	0.77753	0.23918	-0.02187	0.43917	0.26935	0.21536	0.54498	0.23835	0.27994	0.59596	0.18266 
4128	34.392	-0.00504	0.77748	0.23919	-0.02190	0.43912	0.26935	0.21545	0.54471	0.23839	0.28010	0.59562	0.18273 
4129	34.400	-0.00504	0.77744	0.23919	-0.02193	0.43906	0.26935	0.21552	0.54444	0.23843	0.28024	0.59528	0.18278 
4130	34.408	-0.00506	0.77741	0.23919	-0.02196	0.43901	0.26934	0.21559	0.54417	0.23845	0.28038	0.59496	0.18283 
4131	34.417	-0.00507	0.77737	0.23920	-0.02200	0.43897	0.26934	0.21565	0.54392	0.23847	0.28050	0.59465	0.18287 
4132	34.425	-0.00508	0.77734	0.23920	-0.02203	0.43893	0.26933	0.21571	0.54367	0.23848	0.28062	0.59434	0.18290 
4133	34.433	-0.00510	0.77731	0.23920	-0.02207	0.43889	0.26932	0.21577	0.54342	0.23848	0.28074	0.59403	0.18291 
4134	34.442	-0.00513	0.77728	0.23920	-0.02211	0.43886	0.26931	0.21583	0.54318	0.23848	0.28086	0.59372	0.18291 
4135	34.450	-0.00516	0.77725	0.23920	-0.02214	0.43884	0.26930	0.21590	0.54293	0.23847	0.28097	0.59342	0.18290 
4136	34.458	-0.00519	0.77722	0.23920	-0.02218	0.43882	0.26928	0.21597	0.54269	0.23847	0.28109	0.59310	0.18289 
4137	34.467	-0.00522	0.77719	0.23919	-0.02221	0.43879	0.26927	0.21605	0.54244	0.23847	0.28122	0.59279	0.18288 
4138	34.475	-0.00525	0.77716	0.23919	-0.02225	0.43877	0.26925	0.21614	0.54219	0.23847	0.28136	0.59247	0.18288 
4139	34.483	-0.00528	0.77714	0.23918	-0.02228	0.43875	0.26923	0.21623	0.54193	0.23848	0.28151	0.59215	0.18288 
4140	34.492	-0.00531	0.77712	0.23918	-0.02231	0.43873	0.26921	0.21632	0.54167	0.23848	0.28166	0.59182	0.18290 
4141	34.500	-0.00534	0.77709	0.23918	-0.02234	0.43870	0.26919	0.21642	0.54141	0.23849	0.28182	0.59149	0.18292 
4142	34.508	-0.00536	0.77707	0.23917	-0.02237	0.43867	0.26916	0.21652	0.54115	0.23850	0.28198	0.59115	0.18293 
4143	34.517	-0.00539	0.77705	0.23917	-0.02240	0.43865	0.26913	0.21662	0.54089	0.23850	0.28214	0.59081	0.18295 
4144	34.525	-0.00541	0.77703	0.23916	-0.02243	0.43862	0.26910	0.21673	0.54063	0.23850	0.28230	0.59045	0.18296 
4145	34.533	-0.00544	0.77701	0.23915	-0.02246	0.43860	0.26906	0.21683	0.54036	0.23849	0.28247	0.59007	0.18297 
4146	34.542	-0.00547	0.77700	0.23914	-0.02249	0.43857	0.26903	0.21694	0.54008	0.23849	0.28265	0.58969	0.18297 
4147	34.550	-0.00550	0.77698	0.23914	-0.02253	0.43854	0.26899	0.21705	0.53979	0.23848	0.28282	0.58929	0.18297 
4148	34.558	-0.00553	0.77696	0.23913	-0.02256	0.43852	0.26896	0.21715	0.53949	0.23847	0.28301	0.58888	0.18297 
4149	34.567	-0.00556	0.77694	0.23912	-0.02259	0.43849	0.26893	0.21726	0.53918	0.23846	0.28319	0.58847	0.18298 
4150	34.575	-0.00559	0.77692	0.23911	-0.02263	0.43847	0.26889	0.21737	0.53886	0.23846	0.28338	0.58805	0.18299 
4151	34.583	-0.00562	0.77690	0.23910	-0.02266	0.43844	0.26886	0.21747	0.53852	0.23846	0.28356	0.58763	0.18300 
4152	34.592	-0.00564	0.77688	0.23910	-0.02270	0.43841	0.26883	0.21758	0.53819	0.23846	0.28375	0.58720	0.18301 
4153	34.600	-0.00567	0.77686	0.23909	-0.02274	0.43838	0.26880	0.21769	0.53785	0.23847	0.28394	0.58678	0.18302 
4154	34.608	-0.00569	0.77683	0.23908	-0.02278	0.43835	0.26877	0.21780	0.53751	0.23849	0.28412	0.58635	0.18303 
4155	34.617	-0.00571	0.77681	0.23908	-0.02282	0.43832	0.26874	0.21790	0.53718	0.23851	0.28431	0.58592	0.18304 
4156	34.625	-0.00572	0.77678	0.23907	-0.02286	0.43829	0.26870	0.21800	0.53686	0.23853	0.28449	0.58550	0.18305 
4157	34.633	-0.00574	0.77675	0.23907	-0.02291	0.43825	0.26867	0.21810	0.53654	0.23854	0.28468	0.58509	0.18306 
4158	34.642	-0.00576	0.77672	0.23906	-0.02295	0.43822	0.26863	0.21820	0.53622	0.23854	0.28485	0.58468	0.18308 
4159	34.650	-0.00578	0.77669	0.23906	-0.02300	0.43819	0.26860	0.21829	0.53591	0.23854	0.28502	0.58428	0.18310 
4160	34.658	-0.00580	0.77666	0.23905	-0.02305	0.43816	0.26856	0.21837	0.53559	0.23853	0.28519	0.58389	0.18312 
4161	34.667	-0.00582	0.77663	0.23904	-0.02310	0.43813	0.26852	0.21846	0.53528	0.23852	0.28534	0.58350	0.18314 
4162	34.675	-0.00585	0.77660	0.23904	-0.02316	0.43810	0.26848	0.21853	0.53497	0.23850	0.28549	0.58312	0.18316 
4163	34.683	-0.00587	0.77657	0.23903	-0.02321	0.43806	0.26844	0.21861	0.53466	0.23848	0.28564	0.58274	0.18317 
4164	34.692	-0.00590	0.77655	0.23903	-0.02327	0.43803	0.26839	0.21868	0.53436	0.23846	0.28577	0.58236	0.18318 
4165	34.700	-0.00593	0.77652	0.23902	-0.02333	0.43800	0.26835	0.21874	0.53406	0.23844	0.28590	0.58198	0.18318 
4166	34.708	-0.00597	0.77649	0.23902	-0.02338	0.43797	0.26830	0.21881	0.53376	0.23843	0.28603	0.58160	0.18319 
4167	34.717	-0.00600	0.77647	0.23901	-0.02343	0.43794	0.26825	0.21888	0.53347	0.23843	0.28616	0.58122	0.18319 
4168	34.725	-0.00604	0.77644	0.23901	-0.02349	0.43791	0.26820	0.21896	0.53319	0.23844	0.28629	0.58084	0.18320 
4169	34.733	-0.00608	0.77642	0.23900	-0.02354	0.43788	0.26815	0.21904	0.53290	0.23847	0.28644	0.58047	0.18322 
4170	34.742	-0.00612	0.77639	0.23899	-0.02359	0.43784	0.26810	0.21912	0.53261	0.23850	0.28659	0.58009	0.18324 
4171	34.750	-0.00616	0.77636	0.23899	-0.02364	0.43781	0.26805	0.21921	0.53231	0.23853	0.28674	0.57971	0.18326 
4172	34.758	-0.00620	0.77633	0.23898	-0.02369	0.43777	0.26800	0.21929	0.53202	0.23856	0.28689	0.57932	0.18329 
4173	34.767	-0.00625	0.77630	0.23898	-0.02374	0.43773	0.26795	0.21938	0.53171	0.23859	0.28705	0.57894	0.18332 
4174	34.775	-0.00629	0.77627	0.23898	-0.02379	0.43769	0.26789	0.21946	0.53141	0.23861	0.28721	0.57854	0.18336 
4175	34.783	-0.00632	0.77624	0.23897	-0.02384	0.43765	0.26784	0.21954	0.53110	0.23863	0.28736	0.57815	0.18340 
